PathFileType	4	(X/Y/Z)	Patient4_TMGait_0pt4_01_left_14.trc.trc
DataRate	CameraRate	NumFrames	NumMarkers	Units	OrigDataRate	OrigDataStartFrame	OrigNumFrames
78.651685393258	78.651685393258	4	33	mm	78.651685393258	18	       141
Frame#	Time	Sacral			L.Shoulder			Chest			R.Shoulder			Neck			R.ASIS			L.ASIS			R.Thigh.Superior			R.Thigh.Lateral			R.Thigh.Inferior			R.Patella			L.Thigh.Superior			L.Thigh.Lateral			L.Thigh.Inferior			L.Patella			L.Shank.Superior			L.Shank.Lateral			L.Shank.Inferior			R.Shank.Superior			R.Shank.Lateral			R.Shank.Inferior			R.Heel			R.Midfoot.Superior			R.Midfoot.Lateral			R.Toe			L.Heel			L.Midfoot.Lateral			L.Midfoot.Superior			L.Toe			L.Elbow			L.Wrist			R.Elbow			R.Wrist			
		X1	Y1	Z1	X2	Y2	Z2	X3	Y3	Z3	X4	Y4	Z4	X5	Y5	Z5	X6	Y6	Z6	X7	Y7	Z7	X8	Y8	Z8	X9	Y9	Z9	X10	Y10	Z10	X11	Y11	Z11	X12	Y12	Z12	X13	Y13	Z13	X14	Y14	Z14	X15	Y15	Z15	X16	Y16	Z16	X17	Y17	Z17	X18	Y18	Z18	X19	Y19	Z19	X20	Y20	Z20	X21	Y21	Z21	X22	Y22	Z22	X23	Y23	Z23	X24	Y24	Z24	X25	Y25	Z25	X26	Y26	Z26	X27	Y27	Z27	X28	Y28	Z28	X29	Y29	Z29	X30	Y30	Z30	X31	Y31	Z31	X32	Y32	Z32	X33	Y33	Z33	

18	17.596142857143	827.799209991111	1006.166260931054	549.322368152441	987.152356626710	1433.396631554455	349.534245117519	1110.260206191671	1363.217194952381	494.417042888235	1054.026849476583	1436.377005557877	679.161268671165	994.452475182317	1495.732866750009	507.934202158450	1066.390047128314	942.682649187938	639.830168774263	1023.375484052903	962.614041648505	367.621398212699	1072.576672247472	733.260418815370	610.367458915537	975.634901332729	632.765603239477	673.297625923454	1038.605057314527	572.414595193773	591.296686687591	1023.857446934149	488.448847574063	595.640140128099	1103.903946836908	782.057960490051	393.971547129411	1057.401505151270	650.999734478204	317.440152950116	1165.794508426410	596.784954768784	372.699453406696	1190.076312516400	526.187218854118	369.160274484111	1166.875575634818	450.601708179188	360.631264126075	1085.445214846272	329.499783707431	309.969903612562	1160.904694583039	220.631337259241	363.302922008895	990.543031326681	402.277096451356	599.725171653040	911.838284206674	301.413353219468	658.077168271158	949.726862149615	206.372818994102	590.896311560283	808.201112957940	43.322275960670	553.799570586206	981.099913403172	97.224786180472	590.426725771782	892.097418579913	36.798498117995	627.876457317005	1100.405337393296	42.447038767466	615.072600026689	1059.932231330208	48.166150470394	402.106881885148	1131.541070620679	49.533893603368	320.332437499829	1207.722943335506	122.573136714171	340.463150990543	1338.032153067542	85.781893275982	309.660138686148	877.501563621362	1092.360164100984	258.790584542489	900.336322209506	830.582703246098	254.886135188359	1164.901043583564	1104.909381395156	783.333575911983	1401.900136845953	1075.482220546986	695.556947473855	
19	17.608857142857	828.333201821184	1005.483247520829	547.172038765785	986.522532020647	1432.913861658469	347.979960205369	1109.797638508868	1363.043689468321	492.875105545235	1053.245950019560	1435.919397581673	677.623841912947	993.646081537533	1495.177724856594	506.524075492952	1066.700998990153	942.160839137867	638.643318152392	1024.704459204876	961.865353440257	366.248084014596	1071.507869508081	732.387865007434	609.259003298669	973.704361330417	632.517415220131	672.228624783991	1036.230875786657	571.618995467820	590.412840559613	1020.908844898342	487.709652821957	594.787927174543	1105.480217346410	780.945960205189	393.721988793467	1058.600330505170	649.610951542844	317.657744207020	1166.364126500813	594.934337104456	373.233652081964	1189.264153287479	523.576282526942	370.417867612772	1165.433684268543	447.944701820900	361.788746191047	1082.891052795459	327.765975335676	310.752076183014	1156.395351857214	218.107070246356	365.067392370992	987.082389261449	401.785138002945	599.082209184807	907.819288241664	301.456448454764	657.624509112078	945.145198102301	206.087461084066	590.598845453604	803.042497514381	43.210643450592	553.809623465198	975.914475379848	97.181581671772	590.390194249947	886.929642195357	36.750317214653	627.906941834763	1095.226775036934	42.484981905512	615.096820076182	1052.707724700456	47.365620949334	403.352790260865	1124.802490620324	47.786888780640	322.010682687476	1202.005355796418	119.397462781200	342.817487499154	1331.912254550176	80.548460789580	312.727016402068	876.404628661562	1091.960282218158	257.967129495863	900.029660542991	830.188925273361	254.392461595928	1166.271817888807	1105.295365525231	781.592266751197	1403.646384061187	1077.928189030691	694.170946263053	
20	17.621571428571	828.963414831449	1004.725843095613	544.829198138755	986.044925354058	1432.265883151671	346.180606910705	1109.435686322762	1362.776556713382	491.165073902226	1052.461092818131	1435.417715670463	675.886454973688	992.933984864027	1494.532965010205	504.856848354404	1067.103021509734	941.575904578153	637.369535816843	1026.189038698599	960.969376796237	364.808123949886	1070.676529715608	731.466113215022	608.144409870606	971.987109096933	632.219634706330	671.082712712879	1034.115318004949	570.772341994146	589.487639111417	1018.219146601160	486.897462773587	593.896357528253	1106.920774216288	779.314314545564	393.470867610033	1059.450670079296	647.924905447480	317.798267402648	1166.341322088963	592.528087066094	373.998172485595	1187.852757468370	520.536120488626	371.856293538512	1163.423991282954	444.947736572914	363.062545378203	1079.894532101725	325.639488823506	311.539144932036	1151.420717802877	215.235114218095	366.928313890373	983.826516217397	401.229509963776	598.408698985099	903.942563057794	301.502116650283	657.144535724780	940.643398717336	205.773073149362	590.299920137686	797.891745419583	43.120498828644	553.820571359395	970.739627023813	97.127650084114	590.353181144288	881.774268942261	36.693393598505	627.934508129331	1090.060097407903	42.485250377705	615.117940638905	1045.000536945619	46.303111383346	404.465636544563	1117.717727467304	45.816117955999	323.661537420050	1195.921795577394	115.895036468189	345.351216586040	1325.490290651138	74.943239861473	316.165125171954	875.624984086158	1091.330528655963	256.862539430410	900.278563902511	829.595291919424	253.446120343161	1167.124926116508	1105.551029970974	780.104044713758	1404.904937687690	1079.690909824885	693.280187538738	
21	17.634285714286	829.674262263383	1003.927477976637	542.310562396962	985.760915426119	1431.483232873104	344.137391763271	1109.195538414361	1362.432373692321	489.295763076039	1051.692266298664	1434.890854703086	673.954803535143	992.350104071683	1493.829052101185	502.931693707241	1067.585511894935	940.948913168611	635.994304374245	1027.782044461269	959.960045444031	363.298971625808	1070.103728922891	730.518674396912	607.026564745854	970.506018431665	631.889779286088	669.855532486269	1032.297525856496	569.892224744993	588.528479261542	1015.814472003671	486.026963984027	592.958258390244	1108.155427824956	777.189459844662	393.172924784213	1059.851041519571	645.975983702551	317.841605584932	1165.679974284213	589.661424117968	374.957536446778	1185.863066667875	517.199043942846	373.423598466821	1160.911880653698	441.737784621381	364.390064073402	1076.574568980546	323.201091053234	312.328718256728	1146.196131401228	212.149941102309	368.821913896923	980.803599078419	400.625586057977	597.701684439839	900.229031605316	301.573247943484	656.635221754574	936.241084010842	205.449534015041	590.007615390289	792.754200500968	43.082517433704	553.846582800639	965.588703239129	97.070100195351	590.326546346337	876.637155726009	36.635844243915	627.962037658230	1084.910736002960	42.437013185154	615.139822193457	1037.179290391240	45.039136589322	405.453909351277	1110.582408086331	43.764095747662	325.229246331133	1189.715649843120	112.270643517716	347.957928850149	1319.014457527565	69.294705972032	319.740214522191	875.221824776203	1090.496410988022	255.456084226190	901.082025016104	828.824903229656	252.045392436079	1167.468989696214	1105.667841922200	778.846145397604	1405.692531189104	1080.728214822108	692.877888439128	
